<svg width="112" height="112" viewBox="0 0 112 112" fill="none" xmlns="http://www.w3.org/2000/svg">
<g filter="url(#filter0_d_350_192)">
<path d="M10 50C10 27.9087 27.9087 10 50 10C72.0913 10 90 27.9087 90 50C90 72.0913 72.0913 90 50 90C27.9087 90 10 72.0913 10 50Z" fill="white"/>
<path d="M67.4495 65.3834H32.5015C31.1463 65.3834 30.0052 64.2779 30.0052 62.887V37.6389C30.0052 36.2839 31.1107 35.1427 32.5015 35.1427H67.4495C68.8047 35.1427 69.9458 36.2482 69.9458 37.6389V62.887C69.9458 64.2779 68.8403 65.3834 67.4495 65.3834Z" fill="#E3E3E3"/>
<path opacity="0.1" d="M34.9978 65.3834L49.9398 53.3656L50.0468 52.7237L34.6412 41.6331L34.6055 64.8486L34.9978 65.3834Z" fill="#231F20"/>
<path d="M32.5015 65.3834C31.1107 65.3834 30.0052 64.2779 30.0052 62.8871V37.6032C30.0052 36.2126 31.1107 35.9629 32.5015 35.9629C33.8923 35.9629 34.9978 36.2482 34.9978 37.6032V65.3834H32.5015Z" fill="#D54B3D"/>
<path fill-rule="evenodd" clip-rule="evenodd" d="M30.0052 37.6032C30.0052 36.2482 31.1107 35.9629 32.5015 35.9629C33.8923 35.9629 34.9978 36.2126 34.9978 37.6032V65.3834H32.5015C31.1107 65.3834 30.0052 64.2779 30.0052 62.8871V37.6032ZM34.6412 37.6032C34.6412 36.8544 34.2845 36.3195 32.5015 36.3195C30.7185 36.3195 30.3618 36.8187 30.3618 37.6032V62.887C30.3618 64.0639 31.3247 65.0267 32.5015 65.0267H34.6412V37.6032Z" fill="#D72B27"/>
<path d="M67.4495 65.3834H64.9532V37.5321C64.9532 36.1412 66.0587 35.9629 67.4495 35.9629C68.8402 35.9629 69.9457 36.1412 69.9457 37.5321V62.9227C69.9457 64.2779 68.8402 65.3834 67.4495 65.3834Z" fill="#D54B3D"/>
<path fill-rule="evenodd" clip-rule="evenodd" d="M64.9532 37.5321C64.9532 36.1412 66.0587 35.9629 67.4495 35.9629C68.8402 35.9629 69.9457 36.1412 69.9457 37.5321V62.9227C69.9457 64.3136 68.8402 65.4191 67.4495 65.4191H64.9532V37.5321ZM69.5892 37.532C69.5892 36.6404 69.0542 36.3195 67.4495 36.3195C65.8447 36.3195 65.3098 36.6047 65.3098 37.532V65.0624H67.4495C68.6263 65.0624 69.5892 64.0995 69.5892 62.9227V37.532Z" fill="#D72B27"/>
<path d="M56.7512 65.3833L30.2142 38.6403L31.61 39.208L50.0825 52.5097L69.9458 37.9443V62.9227C69.9458 64.2778 68.8403 65.3833 67.4495 65.3833H56.7512Z" fill="url(#paint0_linear_350_192)"/>
<path d="M49.9398 53.3655L31.075 39.6717C29.9695 38.8515 29.6487 37.2824 30.4688 36.1769C31.289 35.0714 32.8938 34.8217 34.035 35.6419L49.9755 47.2319L66.023 35.4994C67.1285 34.679 68.6977 34.9287 69.5178 36.0699C70.338 37.1754 70.0883 38.7445 68.9472 39.5647L49.9398 53.3655Z" fill="#D54B3D"/>
<path fill-rule="evenodd" clip-rule="evenodd" d="M65.9873 35.4637C66.4153 35.1427 66.9502 35 67.4495 35C68.234 35 68.9828 35.3567 69.4822 36.0698C70.2667 37.211 70.0172 38.7445 68.9117 39.5647L49.9398 53.4012L31.075 39.6717C29.9695 38.8513 29.6487 37.2823 30.4332 36.1768C30.9323 35.4993 31.717 35.1427 32.5015 35.1427C33.0365 35.1427 33.5713 35.2853 33.9993 35.6062L49.9398 47.1962L65.9873 35.4637ZM69.1968 36.2482C68.769 35.6775 68.127 35.3567 67.4495 35.3567C66.9858 35.3567 66.558 35.4993 66.1657 35.7488L50.1538 47.4815L49.9398 47.624L49.7258 47.4815L33.821 35.9272C33.4643 35.6418 33.0008 35.4993 32.5372 35.4993C31.824 35.4993 31.1463 35.8558 30.7542 36.3908C30.0765 37.318 30.3262 38.6732 31.289 39.3863L49.9398 52.9375L68.7333 39.2437C69.6605 38.5305 69.8745 37.211 69.1968 36.2482Z" fill="#D72B27"/>
</g>
<defs>
<filter id="filter0_d_350_192" x="0" y="0" width="112" height="112" filterUnits="userSpaceOnUse" color-interpolation-filters="sRGB">
<feFlood flood-opacity="0" result="BackgroundImageFix"/>
<feColorMatrix in="SourceAlpha" type="matrix" values="0 0 0 0 0 0 0 0 0 0 0 0 0 0 0 0 0 0 127 0" result="hardAlpha"/>
<feOffset dx="6" dy="6"/>
<feGaussianBlur stdDeviation="8"/>
<feColorMatrix type="matrix" values="0 0 0 0 0 0 0 0 0 0 0 0 0 0 0 0 0 0 0.1 0"/>
<feBlend mode="normal" in2="BackgroundImageFix" result="effect1_dropShadow_350_192"/>
<feBlend mode="normal" in="SourceGraphic" in2="effect1_dropShadow_350_192" result="shape"/>
</filter>
<linearGradient id="paint0_linear_350_192" x1="30.2157" y1="65.3866" x2="69.9587" y2="65.3866" gradientUnits="userSpaceOnUse">
<stop stop-opacity="0.1"/>
<stop offset="1" stop-opacity="0.2"/>
</linearGradient>
</defs>
</svg>
