<svg width="112" height="112" viewBox="0 0 112 112" fill="none" xmlns="http://www.w3.org/2000/svg">
<g filter="url(#filter0_d_350_176)">
<path d="M10 50C10 27.9086 27.9086 10 50 10C72.0914 10 90 27.9086 90 50C90 72.0914 72.0914 90 50 90C27.9086 90 10 72.0914 10 50Z" fill="white"/>
<path d="M50 39.3688C53.2548 39.3688 55.4504 40.7748 56.7022 41.9496L61.5941 37.1733C58.5896 34.3807 54.68 32.6666 50 32.6666C43.2207 32.6666 37.3659 36.557 34.5156 42.2192L40.12 46.5718C41.5259 42.3926 45.4163 39.3688 50 39.3688Z" fill="#EA4335"/>
<path d="M66.64 50.3851C66.64 48.9599 66.5244 47.9199 66.2741 46.8414H50V53.274H59.5526C59.36 54.8725 58.32 57.28 56.0089 58.8977L61.4785 63.1348C64.7526 60.1111 66.64 55.6622 66.64 50.3851Z" fill="#4285F4"/>
<path d="M40.1393 53.4281C39.7733 52.3496 39.5615 51.1941 39.5615 50C39.5615 48.8059 39.7733 47.6504 40.12 46.5718L34.5156 42.2192C33.3407 44.5689 32.6667 47.2074 32.6667 50C32.6667 52.7926 33.3407 55.4311 34.5156 57.7807L40.1393 53.4281Z" fill="#FBBC05"/>
<path d="M50 67.3333C54.68 67.3333 58.6089 65.7926 61.4785 63.1348L56.0089 58.8977C54.5452 59.9185 52.5807 60.6311 50 60.6311C45.4163 60.6311 41.5259 57.6074 40.1393 53.4281L34.5348 57.7807C37.3852 63.4429 43.2207 67.3333 50 67.3333Z" fill="#34A853"/>
</g>
<defs>
<filter id="filter0_d_350_176" x="0" y="0" width="112" height="112" filterUnits="userSpaceOnUse" color-interpolation-filters="sRGB">
<feFlood flood-opacity="0" result="BackgroundImageFix"/>
<feColorMatrix in="SourceAlpha" type="matrix" values="0 0 0 0 0 0 0 0 0 0 0 0 0 0 0 0 0 0 127 0" result="hardAlpha"/>
<feOffset dx="6" dy="6"/>
<feGaussianBlur stdDeviation="8"/>
<feColorMatrix type="matrix" values="0 0 0 0 0 0 0 0 0 0 0 0 0 0 0 0 0 0 0.1 0"/>
<feBlend mode="normal" in2="BackgroundImageFix" result="effect1_dropShadow_350_176"/>
<feBlend mode="normal" in="SourceGraphic" in2="effect1_dropShadow_350_176" result="shape"/>
</filter>
</defs>
</svg>
