<svg width="112" height="112" viewBox="0 0 112 112" fill="none" xmlns="http://www.w3.org/2000/svg">
<g filter="url(#filter0_d_350_32)">
<path d="M10 50C10 27.9086 27.9086 10 50 10C72.0914 10 90 27.9086 90 50C90 72.0914 72.0914 90 50 90C27.9086 90 10 72.0914 10 50Z" fill="#F7F7F7"/>
<mask id="mask0_350_32" style="mask-type:luminance" maskUnits="userSpaceOnUse" x="10" y="10" width="80" height="80">
<path fill-rule="evenodd" clip-rule="evenodd" d="M10 50C10 27.9086 27.9086 10 50 10C72.0914 10 90 27.9086 90 50C90 72.0914 72.0914 90 50 90C27.9086 90 10 72.0914 10 50Z" fill="white"/>
</mask>
<g mask="url(#mask0_350_32)">
<path fill-rule="evenodd" clip-rule="evenodd" d="M49.9987 28.6667C44.2079 28.6668 43.4806 28.6921 41.2055 28.7956C38.9343 28.8996 37.3841 29.2592 36.0276 29.7868C34.6245 30.3317 33.4343 31.0606 32.2485 32.2468C31.0618 33.4326 30.3329 34.6228 29.7862 36.0255C29.2573 37.3824 28.8973 38.9331 28.7951 41.2033C28.6933 43.4789 28.6667 44.2065 28.6667 50.0003C28.6667 55.7941 28.6924 56.519 28.7955 58.7946C28.9 61.0658 29.2596 62.616 29.7867 63.9725C30.332 65.3756 31.0609 66.5658 32.2471 67.7516C33.4325 68.9383 34.6227 69.669 36.025 70.2138C37.3823 70.7414 38.933 71.101 41.2037 71.205C43.4793 71.3085 44.2059 71.3339 49.9993 71.3339C55.7936 71.3339 56.5185 71.3085 58.7941 71.205C61.0652 71.101 62.6172 70.7414 63.9746 70.2138C65.3773 69.669 66.5657 68.9383 67.7511 67.7516C68.9377 66.5658 69.6666 65.3756 70.2133 63.9729C70.7378 62.616 71.0978 61.0653 71.2044 58.7951C71.3066 56.5195 71.3333 55.7941 71.3333 50.0003C71.3333 44.2065 71.3066 43.4793 71.2044 41.2038C71.0978 38.9326 70.7378 37.3824 70.2133 36.0259C69.6666 34.6228 68.9377 33.4326 67.7511 32.2468C66.5644 31.0601 65.3777 30.3312 63.9732 29.7868C62.6132 29.2592 61.0621 28.8996 58.791 28.7956C56.5158 28.6921 55.7912 28.6668 49.9987 28.6667ZM48.0882 32.5112C48.4598 32.5107 48.8596 32.5108 49.291 32.511L50.002 32.5112C55.6981 32.5112 56.3732 32.5317 58.6226 32.6339C60.7026 32.729 61.8315 33.0766 62.5835 33.3686C63.5791 33.7552 64.2888 34.2175 65.0351 34.9641C65.7817 35.7108 66.244 36.4219 66.6315 37.4175C66.9235 38.1686 67.2715 39.2975 67.3662 41.3776C67.4684 43.6265 67.4906 44.302 67.4906 49.9954C67.4906 55.6888 67.4684 56.3644 67.3662 58.6133C67.2711 60.6933 66.9235 61.8222 66.6315 62.5733C66.2449 63.5689 65.7817 64.2778 65.0351 65.024C64.2884 65.7707 63.5795 66.2329 62.5835 66.6196C61.8324 66.9129 60.7026 67.2596 58.6226 67.3547C56.3736 67.4569 55.6981 67.4792 50.002 67.4792C44.3055 67.4792 43.6304 67.4569 41.3815 67.3547C39.3015 67.2587 38.1726 66.9112 37.4201 66.6192C36.4245 66.2325 35.7134 65.7703 34.9667 65.0236C34.2201 64.2769 33.7578 63.5676 33.3703 62.5716C33.0783 61.8204 32.7303 60.6915 32.6356 58.6115C32.5334 56.3626 32.5129 55.687 32.5129 49.9901C32.5129 44.2931 32.5334 43.6211 32.6356 41.3722C32.7307 39.2922 33.0783 38.1633 33.3703 37.4113C33.757 36.4157 34.2201 35.7046 34.9667 34.9579C35.7134 34.2113 36.4245 33.749 37.4201 33.3615C38.1721 33.0681 39.3015 32.7215 41.3815 32.6259C43.3495 32.537 44.1122 32.5103 48.0882 32.5059V32.5112ZM58.8296 38.6127C58.8296 37.1989 59.9763 36.0536 61.3896 36.0536V36.0527C62.803 36.0527 63.9497 37.1993 63.9497 38.6127C63.9497 40.026 62.803 41.1727 61.3896 41.1727C59.9763 41.1727 58.8296 40.026 58.8296 38.6127ZM50.0015 39.0446C43.9514 39.0449 39.0463 43.9502 39.0463 50.0003C39.0463 56.0506 43.9517 60.9538 50.002 60.9538C56.0522 60.9538 60.9559 56.0506 60.9559 50.0003C60.9559 43.95 56.0518 39.0446 50.0015 39.0446ZM57.1132 50.0003C57.1132 46.0727 53.9291 42.8891 50.002 42.8891C46.0744 42.8891 42.8908 46.0727 42.8908 50.0003C42.8908 53.9275 46.0744 57.1115 50.002 57.1115C53.9291 57.1115 57.1132 53.9275 57.1132 50.0003Z" fill="black"/>
</g>
</g>
<defs>
<filter id="filter0_d_350_32" x="0" y="0" width="112" height="112" filterUnits="userSpaceOnUse" color-interpolation-filters="sRGB">
<feFlood flood-opacity="0" result="BackgroundImageFix"/>
<feColorMatrix in="SourceAlpha" type="matrix" values="0 0 0 0 0 0 0 0 0 0 0 0 0 0 0 0 0 0 127 0" result="hardAlpha"/>
<feOffset dx="6" dy="6"/>
<feGaussianBlur stdDeviation="8"/>
<feColorMatrix type="matrix" values="0 0 0 0 0 0 0 0 0 0 0 0 0 0 0 0 0 0 0.11 0"/>
<feBlend mode="normal" in2="BackgroundImageFix" result="effect1_dropShadow_350_32"/>
<feBlend mode="normal" in="SourceGraphic" in2="effect1_dropShadow_350_32" result="shape"/>
</filter>
</defs>
</svg>
