<svg width="46" height="34" viewBox="0 0 46 34" fill="none" xmlns="http://www.w3.org/2000/svg">
<path fill-rule="evenodd" clip-rule="evenodd" d="M45.5 24C45.5 25.6569 44.1569 27 42.5 27H36.5H9.5H3.5C1.84314 27 0.5 25.6569 0.5 24V18V9V3C0.5 1.34314 1.84314 0 3.5 0H9.5H36.5H42.5C44.1569 0 45.5 1.34314 45.5 3V9V18V24ZM3.5 19.6905V24H7.80947C7.73959 23.7293 7.65072 23.4633 7.54328 23.2039C7.24175 22.4759 6.79979 21.8145 6.24264 21.2574C5.68549 20.7002 5.02405 20.2583 4.2961 19.9567C4.0367 19.8493 3.77066 19.7604 3.5 19.6905ZM10.8741 24C10.7616 23.3346 10.5744 22.6823 10.3149 22.0558C9.86262 20.9639 9.19969 19.9718 8.36396 19.136C7.52823 18.3003 6.53608 17.6374 5.44415 17.1851C4.8177 16.9256 4.16544 16.7384 3.5 16.6259V10.3741C4.16544 10.2616 4.8177 10.0744 5.44415 9.81492C6.53608 9.36262 7.52823 8.69969 8.36396 7.86396C9.19969 7.02823 9.86262 6.03608 10.3149 4.94415C10.5744 4.3177 10.7616 3.66544 10.8741 3H35.1258C35.4352 4.83046 36.306 6.53392 37.636 7.86396C38.9661 9.194 40.6695 10.0648 42.5 10.3742V16.6258C40.6695 16.9352 38.9661 17.806 37.636 19.136C36.306 20.4661 35.4352 22.1695 35.1258 24H10.8741ZM42.5 24H38.1905C38.4562 22.971 38.993 22.0217 39.7574 21.2574C40.5217 20.493 41.471 19.9562 42.5 19.6905V24ZM7.80947 3H3.5V7.30948C3.77066 7.23959 4.0367 7.15073 4.2961 7.04328C5.02405 6.74175 5.68549 6.29979 6.24264 5.74264C6.79979 5.18549 7.24175 4.52405 7.54328 3.7961C7.65072 3.5367 7.73959 3.27066 7.80947 3ZM39.7574 5.74264C40.5217 6.50695 41.471 7.04376 42.5 7.30949V3H38.1905C38.4562 4.02904 38.993 4.97833 39.7574 5.74264ZM6.5 32.5C6.5 31.6716 7.17157 31 8 31H38C38.8284 31 39.5 31.6716 39.5 32.5C39.5 33.3284 38.8284 34 38 34H8C7.17157 34 6.5 33.3284 6.5 32.5ZM17 13.5C17 10.1863 19.6863 7.5 23 7.5C26.3137 7.5 29 10.1863 29 13.5C29 16.8137 26.3137 19.5 23 19.5C19.6863 19.5 17 16.8137 17 13.5ZM23 4.5C18.0294 4.5 14 8.52944 14 13.5C14 18.4706 18.0294 22.5 23 22.5C27.9706 22.5 32 18.4706 32 13.5C32 8.52944 27.9706 4.5 23 4.5Z" fill="#888888"/>
</svg>
