<svg width="108" height="108" viewBox="0 0 108 108" fill="none" xmlns="http://www.w3.org/2000/svg">
<g filter="url(#filter0_d_350_151)">
<path d="M10 50C10 27.9086 27.9086 10 50 10C72.0914 10 90 27.9086 90 50C90 72.0914 72.0914 90 50 90C27.9086 90 10 72.0914 10 50Z" fill="white"/>
<path d="M37.5591 55.6614C37.5591 58.1426 35.5323 60.1694 33.0511 60.1694C30.5699 60.1694 28.543 58.1426 28.543 55.6614C28.543 53.1802 30.5699 51.1533 33.0511 51.1533H37.5591V55.6614Z" fill="#E01E5A"/>
<path d="M39.8307 55.6614C39.8307 53.1802 41.8575 51.1533 44.3387 51.1533C46.8199 51.1533 48.8468 53.1802 48.8468 55.6614V66.949C48.8468 69.4302 46.8199 71.4571 44.3387 71.4571C41.8575 71.4571 39.8307 69.4302 39.8307 66.949V55.6614Z" fill="#E01E5A"/>
<path d="M44.3387 37.5592C41.8575 37.5592 39.8307 35.5323 39.8307 33.0512C39.8307 30.57 41.8575 28.5431 44.3387 28.5431C46.8199 28.5431 48.8468 30.57 48.8468 33.0512V37.5592H44.3387Z" fill="#36C5F0"/>
<path d="M44.3387 39.8307C46.8199 39.8307 48.8468 41.8576 48.8468 44.3388C48.8468 46.8199 46.8199 48.8468 44.3387 48.8468H33.0511C30.5699 48.8468 28.543 46.8199 28.543 44.3388C28.543 41.8576 30.5699 39.8307 33.0511 39.8307H44.3387Z" fill="#36C5F0"/>
<path d="M62.4409 44.3388C62.4409 41.8576 64.4677 39.8307 66.9489 39.8307C69.4301 39.8307 71.457 41.8576 71.457 44.3388C71.457 46.8199 69.4301 48.8468 66.9489 48.8468H62.4409V44.3388Z" fill="#2EB67D"/>
<path d="M60.1694 44.3388C60.1694 46.82 58.1425 48.8469 55.6613 48.8469C53.1801 48.8469 51.1532 46.82 51.1532 44.3388V33.0512C51.1532 30.57 53.1801 28.5431 55.6613 28.5431C58.1425 28.5431 60.1694 30.57 60.1694 33.0512V44.3388Z" fill="#2EB67D"/>
<path d="M55.6613 62.4409C58.1425 62.4409 60.1694 64.4678 60.1694 66.949C60.1694 69.4302 58.1425 71.457 55.6613 71.457C53.1801 71.457 51.1532 69.4302 51.1532 66.949V62.4409H55.6613Z" fill="#ECB22E"/>
<path d="M55.6613 60.1694C53.1801 60.1694 51.1532 58.1426 51.1532 55.6614C51.1532 53.1802 53.1801 51.1533 55.6613 51.1533H66.9489C69.4301 51.1533 71.457 53.1802 71.457 55.6614C71.457 58.1426 69.4301 60.1694 66.9489 60.1694H55.6613Z" fill="#ECB22E"/>
</g>
<defs>
<filter id="filter0_d_350_151" x="0" y="0" width="108" height="108" filterUnits="userSpaceOnUse" color-interpolation-filters="sRGB">
<feFlood flood-opacity="0" result="BackgroundImageFix"/>
<feColorMatrix in="SourceAlpha" type="matrix" values="0 0 0 0 0 0 0 0 0 0 0 0 0 0 0 0 0 0 127 0" result="hardAlpha"/>
<feOffset dx="4" dy="4"/>
<feGaussianBlur stdDeviation="7"/>
<feColorMatrix type="matrix" values="0 0 0 0 0 0 0 0 0 0 0 0 0 0 0 0 0 0 0.09 0"/>
<feBlend mode="normal" in2="BackgroundImageFix" result="effect1_dropShadow_350_151"/>
<feBlend mode="normal" in="SourceGraphic" in2="effect1_dropShadow_350_151" result="shape"/>
</filter>
</defs>
</svg>
