<svg width="34" height="34" viewBox="0 0 34 34" fill="none" xmlns="http://www.w3.org/2000/svg">
<path fill-rule="evenodd" clip-rule="evenodd" d="M34 5.76363C34 4.23489 33.393 2.76911 32.3119 1.68804C31.2308 0.606967 29.7651 0 28.2363 0C21.9734 0 12.0265 0 5.76362 0C4.23489 0 2.76911 0.606967 1.68804 1.68804C0.607595 2.76911 0 4.23489 0 5.76363C0 12.0266 0 21.9734 0 28.2364C0 29.7651 0.607595 31.2309 1.68804 32.312C2.76911 33.393 4.23489 34 5.76362 34C12.0265 34 21.9734 34 28.2363 34C29.7651 34 31.2308 33.393 32.3119 32.312C33.393 31.2309 34 29.7651 34 28.2364V5.76363Z" fill="white"/>
<path fill-rule="evenodd" clip-rule="evenodd" d="M21.0893 11.3156C22.4556 9.94924 22.4555 7.73364 21.0888 6.36704C19.7222 5.00044 17.5066 5.00031 16.1403 6.36663L14.6555 7.8514C13.868 8.63897 13.426 9.70716 13.4259 10.8205C13.4258 11.9346 13.8683 13.0025 14.6556 13.7899L16.6353 15.7695L21.0893 11.3156Z" fill="#EE9591"/>
<path fill-rule="evenodd" clip-rule="evenodd" d="M15.6444 16.7277C15.6444 16.7277 15.0259 16.1091 14.4075 15.4906C14.0794 15.1624 13.6346 14.9782 13.1705 14.9781C12.7067 14.9781 12.2618 15.1623 11.9337 15.4905L11.9336 15.4906C11.2505 16.1737 11.2506 17.2815 11.9335 17.9645L11.934 17.9649C12.6169 18.648 13.7244 18.648 14.4074 17.9649C15.0259 17.3463 15.6444 16.7277 15.6444 16.7277Z" fill="#EE9591"/>
<path fill-rule="evenodd" clip-rule="evenodd" d="M22.0775 22.1666C22.8651 21.379 23.3071 20.3107 23.3074 19.1974C23.3072 18.0836 22.8648 17.0158 22.0775 16.2285L20.098 14.249L11.6865 22.6605C11.0303 23.3168 10.6614 24.2072 10.6615 25.1348C10.6616 26.0633 11.0301 26.953 11.6863 27.6092C13.0528 28.9757 15.2683 28.9758 16.6345 27.6096C18.2512 25.9929 20.3704 23.8736 22.0775 22.1666Z" fill="#EE9591"/>
</svg>
