<svg width="108" height="108" viewBox="0 0 108 108" fill="none" xmlns="http://www.w3.org/2000/svg">
<g filter="url(#filter0_d_350_167)">
<path d="M50 90C72.0914 90 90 72.0914 90 50C90 27.9086 72.0914 10 50 10C27.9086 10 10 27.9086 10 50C10 72.0914 27.9086 90 50 90Z" fill="#25D366"/>
<path fill-rule="evenodd" clip-rule="evenodd" d="M51.3185 72.2543H51.3086C47.3278 72.2529 43.4163 71.2541 39.9422 69.3592L27.3333 72.6667L30.7077 60.3415C28.6262 56.7343 27.531 52.6426 27.5327 48.4505C27.538 35.3362 38.208 24.6667 51.3182 24.6667C57.6811 24.6695 63.653 27.1465 68.1437 31.6424C72.6343 36.1381 75.1061 42.114 75.1036 48.4693C75.0983 61.5805 64.4325 72.2489 51.3185 72.2543ZM40.5264 65.0532L41.2483 65.4816C44.2836 67.2828 47.763 68.2359 51.3104 68.2373H51.3184C62.2147 68.2373 71.0832 59.3686 71.0875 48.4679C71.0896 43.1854 69.0352 38.2185 65.3028 34.4817C61.5703 30.7449 56.6066 28.6859 51.3262 28.6841C40.4215 28.6841 31.553 37.5519 31.5486 48.4518C31.5471 52.1873 32.5923 55.8253 34.5712 58.9728L35.0413 59.7208L33.0441 67.016L40.5264 65.0532ZM62.4874 53.5902C62.9019 53.7905 63.1818 53.9258 63.3013 54.1253C63.4498 54.3731 63.4498 55.5631 62.9548 56.9515C62.4594 58.3397 60.0851 59.6068 58.9432 59.7773C57.9193 59.9304 56.6236 59.9943 55.1999 59.5418C54.3367 59.268 53.2298 58.9023 51.8119 58.2899C46.2403 55.8841 42.475 50.4841 41.7634 49.4635C41.7136 49.392 41.6787 49.342 41.6593 49.316L41.6545 49.3096C41.34 48.89 39.2325 46.0782 39.2325 43.1681C39.2325 40.4305 40.5773 38.9956 41.1962 38.3351C41.2386 38.2899 41.2777 38.2483 41.3126 38.2101C41.8573 37.6151 42.5012 37.4664 42.8974 37.4664C43.2936 37.4664 43.6902 37.47 44.0365 37.4874C44.0792 37.4896 44.1236 37.4893 44.1696 37.489C44.5159 37.487 44.9477 37.4845 45.3736 38.5076C45.5375 38.9014 45.7773 39.4851 46.0301 40.1007C46.5415 41.3457 47.1066 42.7214 47.206 42.9205C47.3546 43.218 47.4536 43.5649 47.2556 43.9617C47.2258 44.0212 47.1983 44.0774 47.172 44.131C47.0232 44.4348 46.9138 44.6582 46.6613 44.9531C46.562 45.069 46.4593 45.194 46.3567 45.319C46.1522 45.568 45.9478 45.817 45.7698 45.9943C45.4722 46.2907 45.1625 46.6122 45.5092 47.2072C45.8559 47.8022 47.0486 49.7483 48.8154 51.3243C50.7146 53.0183 52.3653 53.7343 53.202 54.0972C53.3653 54.1681 53.4977 54.2255 53.5948 54.2741C54.1889 54.5717 54.5356 54.5219 54.8823 54.1253C55.229 53.7287 56.368 52.3899 56.7641 51.795C57.1602 51.2002 57.5566 51.2993 58.1012 51.4975C58.6461 51.6961 61.568 53.1337 62.1623 53.4311C62.2783 53.4892 62.3868 53.5416 62.4874 53.5902Z" fill="#FDFDFD"/>
</g>
<defs>
<filter id="filter0_d_350_167" x="0" y="0" width="108" height="108" filterUnits="userSpaceOnUse" color-interpolation-filters="sRGB">
<feFlood flood-opacity="0" result="BackgroundImageFix"/>
<feColorMatrix in="SourceAlpha" type="matrix" values="0 0 0 0 0 0 0 0 0 0 0 0 0 0 0 0 0 0 127 0" result="hardAlpha"/>
<feOffset dx="4" dy="4"/>
<feGaussianBlur stdDeviation="7"/>
<feColorMatrix type="matrix" values="0 0 0 0 0 0 0 0 0 0 0 0 0 0 0 0 0 0 0.09 0"/>
<feBlend mode="normal" in2="BackgroundImageFix" result="effect1_dropShadow_350_167"/>
<feBlend mode="normal" in="SourceGraphic" in2="effect1_dropShadow_350_167" result="shape"/>
</filter>
</defs>
</svg>
